<svg width="100" height="96" viewBox="0 0 100 96" fill="none" xmlns="http://www.w3.org/2000/svg">
<rect width="99.1698" height="96" rx="15" fill="url(#paint0_linear_294_60)"/>
<path d="M64.5561 66.6631C66.1217 68.9378 65.5584 72.0908 63.0712 73.2905C57.2649 76.0913 50.7205 77.1245 44.2657 76.1964C36.1507 75.0296 28.7732 70.8483 23.6029 64.4857C18.4327 58.123 15.8493 50.0461 16.3674 41.864C16.8856 33.682 20.4672 25.9954 26.3988 20.3358C32.3303 14.6762 40.1764 11.459 48.3737 11.3251C56.5711 11.1913 64.518 14.1506 70.6312 19.6136C76.7443 25.0765 80.575 32.642 81.36 40.8028C81.9844 47.294 80.6454 53.7828 77.5754 59.4513C76.2603 61.8795 73.0844 62.2944 70.8856 60.6238L69.5086 59.5776C67.3098 57.9071 66.9477 54.7813 68.0489 52.2489C69.45 49.0268 70.0261 45.4769 69.6846 41.9259C69.182 36.701 66.7294 31.8572 62.8155 28.3595C58.9015 24.8619 53.8136 22.9672 48.5652 23.0529C43.3169 23.1386 38.2935 25.1984 34.4958 28.822C30.6982 32.4455 28.405 37.3668 28.0733 42.6053C27.7416 47.8439 29.3956 53.0151 32.7058 57.0887C36.0161 61.1624 40.7395 63.8394 45.9351 64.5865C49.4662 65.0942 53.0392 64.6852 56.3234 63.4368C58.9047 62.4556 62.0101 62.9639 63.5757 65.2386L64.5561 66.6631Z" fill="#2759CC"/>
<mask id="mask0_294_60" style="mask-type:alpha" maskUnits="userSpaceOnUse" x="16" y="11" width="66" height="66">
<path d="M64.5564 66.6629C66.122 68.9376 65.5586 72.0906 63.0714 73.2903C57.2652 76.0911 50.7207 77.1243 44.266 76.1962C36.151 75.0294 28.7734 70.8481 23.6032 64.4855C18.4329 58.1228 15.8495 50.0459 16.3677 41.8638C16.8858 33.6818 20.4674 25.9952 26.399 20.3356C32.3306 14.676 40.1766 11.4588 48.374 11.3249C56.5713 11.1911 64.5182 14.1504 70.6314 19.6134C76.7446 25.0763 80.5753 32.6418 81.3602 40.8026C81.9846 47.2938 80.6456 53.7826 77.5756 59.4511C76.2606 61.8793 73.0846 62.2942 70.8859 60.6236L69.5089 59.5774C67.3101 57.9069 66.948 54.781 68.0491 52.2487C69.4502 49.0265 70.0264 45.4767 69.6848 41.9257C69.1822 36.7008 66.7296 31.857 62.8157 28.3593C58.9018 24.8617 53.8138 22.967 48.5655 23.0527C43.3171 23.1384 38.2937 25.1982 34.4961 28.8217C30.6984 32.4453 28.4053 37.3666 28.0736 42.6051C27.7418 47.8436 29.3958 53.0149 32.7061 57.0885C36.0163 61.1622 40.7397 63.8392 45.9353 64.5863C49.4664 65.094 53.0394 64.685 56.3237 63.4365C58.9049 62.4554 62.0103 62.9636 63.5759 65.2384L64.5564 66.6629Z" fill="#2759CC"/>
</mask>
<g mask="url(#mask0_294_60)">
<path d="M54.3483 31.8086C49.8535 30.8662 45.1676 31.1094 40.8116 32.5113C36.4555 33.9131 32.5999 36.4186 29.6735 39.7492C26.747 43.0799 24.8643 47.1052 24.2346 51.3777C23.6049 55.6503 24.2529 60.0026 26.1065 63.9509C27.9602 67.8993 30.9469 71.289 34.7347 73.7431C38.5224 76.1973 42.9628 77.6199 47.5622 77.8526C52.1617 78.0854 56.7399 77.1193 60.7881 75.0617C64.8363 73.0041 68.1958 69.9356 70.4931 66.1973L48.9064 54.5659L54.3483 31.8086Z" fill="#3F70E2"/>
</g>
<path d="M79.7976 78.9321L56.2725 72.1643L61.5977 62.5615L79.7976 78.9321Z" fill="#4875DD"/>
<circle cx="49.3584" cy="43.9245" r="12.6792" fill="#3F70E2"/>
<defs>
<linearGradient id="paint0_linear_294_60" x1="21.283" y1="18.566" x2="113.265" y2="119.455" gradientUnits="userSpaceOnUse">
<stop stop-color="#F7F7F7"/>
<stop offset="1" stop-color="#DCDCDC"/>
</linearGradient>
</defs>
</svg>
