<svg width="522" height="105" viewBox="0 0 522 105" fill="none" xmlns="http://www.w3.org/2000/svg">
<rect y="9" width="99.1698" height="96" rx="15" fill="url(#paint0_linear_289_34)"/>
<path d="M64.5561 75.6631C66.1217 77.9378 65.5584 81.0908 63.0712 82.2905C57.2649 85.0913 50.7205 86.1245 44.2657 85.1964C36.1507 84.0296 28.7732 79.8483 23.6029 73.4857C18.4327 67.123 15.8493 59.0461 16.3674 50.864C16.8856 42.682 20.4672 34.9954 26.3988 29.3358C32.3303 23.6762 40.1764 20.459 48.3737 20.3251C56.5711 20.1913 64.518 23.1506 70.6312 28.6136C76.7443 34.0765 80.575 41.642 81.36 49.8028C81.9844 56.294 80.6454 62.7828 77.5754 68.4513C76.2603 70.8795 73.0844 71.2944 70.8856 69.6238L69.5086 68.5776C67.3098 66.9071 66.9477 63.7812 68.0489 61.2489C69.45 58.0267 70.0261 54.4769 69.6846 50.9259C69.182 45.701 66.7294 40.8572 62.8155 37.3595C58.9015 33.8619 53.8136 31.9672 48.5652 32.0529C43.3169 32.1386 38.2935 34.1984 34.4958 37.8219C30.6982 41.4455 28.405 46.3668 28.0733 51.6053C27.7416 56.8438 29.3956 62.0151 32.7058 66.0887C36.0161 70.1624 40.7395 72.8394 45.9351 73.5865C49.4662 74.0942 53.0392 73.6852 56.3234 72.4367C58.9047 71.4556 62.0101 71.9638 63.5757 74.2386L64.5561 75.6631Z" fill="#2759CC"/>
<mask id="mask0_289_34" style="mask-type:alpha" maskUnits="userSpaceOnUse" x="16" y="20" width="66" height="66">
<path d="M64.5564 75.6629C66.122 77.9376 65.5586 81.0906 63.0714 82.2903C57.2652 85.0911 50.7207 86.1243 44.266 85.1962C36.151 84.0294 28.7734 79.8481 23.6032 73.4855C18.4329 67.1228 15.8495 59.0459 16.3677 50.8638C16.8858 42.6817 20.4674 34.9952 26.399 29.3356C32.3306 23.676 40.1766 20.4587 48.374 20.3249C56.5713 20.1911 64.5182 23.1504 70.6314 28.6133C76.7446 34.0763 80.5753 41.6418 81.3602 49.8026C81.9846 56.2938 80.6456 62.7826 77.5756 68.4511C76.2606 70.8793 73.0846 71.2942 70.8859 69.6236L69.5089 68.5774C67.3101 66.9069 66.948 63.781 68.0491 61.2487C69.4502 58.0265 70.0264 54.4767 69.6848 50.9257C69.1822 45.7007 66.7296 40.8569 62.8157 37.3593C58.9018 33.8617 53.8138 31.967 48.5655 32.0527C43.3171 32.1384 38.2937 34.1982 34.4961 37.8217C30.6984 41.4453 28.4053 46.3666 28.0736 51.6051C27.7418 56.8436 29.3958 62.0149 32.7061 66.0885C36.0163 70.1622 40.7397 72.8392 45.9353 73.5863C49.4664 74.094 53.0394 73.6849 56.3237 72.4365C58.9049 71.4554 62.0103 71.9636 63.5759 74.2384L64.5564 75.6629Z" fill="#2759CC"/>
</mask>
<g mask="url(#mask0_289_34)">
<path d="M54.3483 40.8086C49.8535 39.8662 45.1676 40.1094 40.8116 41.5113C36.4555 42.9131 32.5999 45.4186 29.6735 48.7492C26.747 52.0799 24.8643 56.1052 24.2346 60.3777C23.6049 64.6503 24.2529 69.0026 26.1065 72.9509C27.9602 76.8993 30.9469 80.289 34.7347 82.7431C38.5224 85.1973 42.9628 86.6199 47.5622 86.8526C52.1617 87.0854 56.7399 86.1193 60.7881 84.0617C64.8363 82.0041 68.1958 78.9356 70.4931 75.1973L48.9064 63.5659L54.3483 40.8086Z" fill="#3F70E2"/>
</g>
<path d="M79.7976 87.9321L56.2725 81.1643L61.5977 71.5615L79.7976 87.9321Z" fill="#4875DD"/>
<circle cx="49.3584" cy="52.9245" r="12.6792" fill="#3F70E2"/>
<path d="M157.4 85.61L149.98 76.72C147.927 77.2333 145.827 77.49 143.68 77.49C139.107 77.49 134.907 76.4167 131.08 74.27C127.253 72.1233 124.22 69.16 121.98 65.38C119.74 61.5533 118.62 57.2367 118.62 52.43C118.62 47.67 119.74 43.4 121.98 39.62C124.22 35.7933 127.253 32.8067 131.08 30.66C134.907 28.5133 139.107 27.44 143.68 27.44C148.3 27.44 152.5 28.5133 156.28 30.66C160.107 32.8067 163.117 35.7933 165.31 39.62C167.55 43.4 168.67 47.67 168.67 52.43C168.67 56.77 167.737 60.7367 165.87 64.33C164.05 67.8767 161.553 70.77 158.38 73.01L169.58 85.61H157.4ZM128.7 52.43C128.7 55.6967 129.33 58.5667 130.59 61.04C131.85 63.5133 133.6 65.4267 135.84 66.78C138.127 68.0867 140.74 68.74 143.68 68.74C146.62 68.74 149.21 68.0867 151.45 66.78C153.69 65.4267 155.44 63.5133 156.7 61.04C157.96 58.5667 158.59 55.6967 158.59 52.43C158.59 49.1633 157.96 46.3167 156.7 43.89C155.44 41.4167 153.69 39.5267 151.45 38.22C149.21 36.9133 146.62 36.26 143.68 36.26C140.74 36.26 138.127 36.9133 135.84 38.22C133.6 39.5267 131.85 41.4167 130.59 43.89C129.33 46.3167 128.7 49.1633 128.7 52.43ZM212.708 38.22V77H202.838V72.1C201.578 73.78 199.921 75.11 197.868 76.09C195.861 77.0233 193.668 77.49 191.288 77.49C188.254 77.49 185.571 76.86 183.238 75.6C180.904 74.2933 179.061 72.4033 177.708 69.93C176.401 67.41 175.748 64.4233 175.748 60.97V38.22H185.548V59.57C185.548 62.65 186.318 65.03 187.858 66.71C189.398 68.3433 191.498 69.16 194.158 69.16C196.864 69.16 198.988 68.3433 200.528 66.71C202.068 65.03 202.838 62.65 202.838 59.57V38.22H212.708ZM227.347 33.6C225.62 33.6 224.174 33.0633 223.007 31.99C221.887 30.87 221.327 29.4933 221.327 27.86C221.327 26.2267 221.887 24.8733 223.007 23.8C224.174 22.68 225.62 22.12 227.347 22.12C229.074 22.12 230.497 22.68 231.617 23.8C232.784 24.8733 233.367 26.2267 233.367 27.86C233.367 29.4933 232.784 30.87 231.617 31.99C230.497 33.0633 229.074 33.6 227.347 33.6ZM232.177 38.22V77H222.377V38.22H232.177ZM264.819 77L251.659 60.48V77H241.859V25.2H251.659V54.67L264.679 38.22H277.419L260.339 57.68L277.559 77H264.819ZM330.898 37.66C335.658 37.66 339.485 39.13 342.378 42.07C345.318 44.9633 346.788 49.0233 346.788 54.25V77H336.988V55.58C336.988 52.5467 336.218 50.2367 334.678 48.65C333.138 47.0167 331.038 46.2 328.378 46.2C325.718 46.2 323.595 47.0167 322.008 48.65C320.468 50.2367 319.698 52.5467 319.698 55.58V77H309.898V55.58C309.898 52.5467 309.128 50.2367 307.588 48.65C306.048 47.0167 303.948 46.2 301.288 46.2C298.582 46.2 296.435 47.0167 294.848 48.65C293.308 50.2367 292.538 52.5467 292.538 55.58V77H282.738V38.22H292.538V42.91C293.798 41.2767 295.408 39.9933 297.368 39.06C299.375 38.1267 301.568 37.66 303.948 37.66C306.982 37.66 309.688 38.3133 312.068 39.62C314.448 40.88 316.292 42.7 317.598 45.08C318.858 42.84 320.678 41.0433 323.058 39.69C325.485 38.3367 328.098 37.66 330.898 37.66ZM392.138 56.77C392.138 58.17 392.044 59.43 391.858 60.55H363.508C363.741 63.35 364.721 65.5433 366.448 67.13C368.174 68.7167 370.298 69.51 372.818 69.51C376.458 69.51 379.048 67.9467 380.588 64.82H391.158C390.038 68.5533 387.891 71.6333 384.718 74.06C381.544 76.44 377.648 77.63 373.028 77.63C369.294 77.63 365.934 76.8133 362.948 75.18C360.008 73.5 357.698 71.1433 356.018 68.11C354.384 65.0767 353.568 61.5767 353.568 57.61C353.568 53.5967 354.384 50.0733 356.018 47.04C357.651 44.0067 359.938 41.6733 362.878 40.04C365.818 38.4067 369.201 37.59 373.028 37.59C376.714 37.59 380.004 38.3833 382.898 39.97C385.838 41.5567 388.101 43.82 389.688 46.76C391.321 49.6533 392.138 52.99 392.138 56.77ZM381.988 53.97C381.941 51.45 381.031 49.4433 379.258 47.95C377.484 46.41 375.314 45.64 372.748 45.64C370.321 45.64 368.268 46.3867 366.588 47.88C364.954 49.3267 363.951 51.3567 363.578 53.97H381.988ZM447.451 37.66C452.211 37.66 456.038 39.13 458.931 42.07C461.871 44.9633 463.341 49.0233 463.341 54.25V77H453.541V55.58C453.541 52.5467 452.771 50.2367 451.231 48.65C449.691 47.0167 447.591 46.2 444.931 46.2C442.271 46.2 440.148 47.0167 438.561 48.65C437.021 50.2367 436.251 52.5467 436.251 55.58V77H426.451V55.58C426.451 52.5467 425.681 50.2367 424.141 48.65C422.601 47.0167 420.501 46.2 417.841 46.2C415.134 46.2 412.988 47.0167 411.401 48.65C409.861 50.2367 409.091 52.5467 409.091 55.58V77H399.291V38.22H409.091V42.91C410.351 41.2767 411.961 39.9933 413.921 39.06C415.928 38.1267 418.121 37.66 420.501 37.66C423.534 37.66 426.241 38.3133 428.621 39.62C431.001 40.88 432.844 42.7 434.151 45.08C435.411 42.84 437.231 41.0433 439.611 39.69C442.038 38.3367 444.651 37.66 447.451 37.66ZM489.861 77.63C486.127 77.63 482.767 76.8133 479.781 75.18C476.794 73.5 474.437 71.1433 472.711 68.11C471.031 65.0767 470.191 61.5767 470.191 57.61C470.191 53.6433 471.054 50.1433 472.781 47.11C474.554 44.0767 476.957 41.7433 479.991 40.11C483.024 38.43 486.407 37.59 490.141 37.59C493.874 37.59 497.257 38.43 500.291 40.11C503.324 41.7433 505.704 44.0767 507.431 47.11C509.204 50.1433 510.091 53.6433 510.091 57.61C510.091 61.5767 509.181 65.0767 507.361 68.11C505.587 71.1433 503.161 73.5 500.081 75.18C497.047 76.8133 493.641 77.63 489.861 77.63ZM489.861 69.09C491.634 69.09 493.291 68.67 494.831 67.83C496.417 66.9433 497.677 65.6367 498.611 63.91C499.544 62.1833 500.011 60.0833 500.011 57.61C500.011 53.9233 499.031 51.1 497.071 49.14C495.157 47.1333 492.801 46.13 490.001 46.13C487.201 46.13 484.844 47.1333 482.931 49.14C481.064 51.1 480.131 53.9233 480.131 57.61C480.131 61.2967 481.041 64.1433 482.861 66.15C484.727 68.11 487.061 69.09 489.861 69.09Z" fill="white"/>
<defs>
<linearGradient id="paint0_linear_289_34" x1="21.283" y1="27.566" x2="113.265" y2="128.455" gradientUnits="userSpaceOnUse">
<stop stop-color="#F7F7F7"/>
<stop offset="1" stop-color="#DCDCDC"/>
</linearGradient>
</defs>
</svg>
