<svg width="916" height="222" viewBox="0 0 916 222" fill="none" xmlns="http://www.w3.org/2000/svg">
<path d="M295.344 141.152C287.92 139.701 281.605 136.928 276.4 132.832C271.195 128.736 267.227 123.573 264.496 117.344C261.765 111.115 260.4 104.16 260.4 96.48C260.4 87.1787 262.277 78.9867 266.032 71.904C269.787 64.736 275.077 59.1467 281.904 55.136C288.816 51.04 296.88 48.992 306.096 48.992C315.227 48.992 323.077 50.9547 329.648 54.88C336.219 58.8053 341.296 64.224 344.88 71.136C348.464 77.9627 350.256 85.8133 350.256 94.688C350.256 102.624 348.805 109.835 345.904 116.32C343.088 122.805 338.992 128.224 333.616 132.576C328.24 136.843 321.755 139.573 314.16 140.768V141.152C319.707 146.187 324.485 150.069 328.496 152.8C332.592 155.616 336.347 157.536 339.76 158.56C343.259 159.584 346.928 160.096 350.768 160.096C352.645 160.096 354.437 159.968 356.144 159.712C357.936 159.456 359.771 158.944 361.648 158.176C362.331 159.115 362.971 160.267 363.568 161.632C360.411 164.277 356.784 166.496 352.688 168.288C348.677 170.08 344.453 170.976 340.016 170.976C335.408 170.976 331.483 170.08 328.24 168.288C325.083 166.496 322.309 164.192 319.92 161.376C317.616 158.56 315.397 155.701 313.264 152.8C312.411 151.605 311.6 150.411 310.832 149.216C310.064 148.107 309.211 147.04 308.272 146.016C306.992 144.395 305.797 143.328 304.688 142.816C303.579 142.389 302.299 142.091 300.848 141.92C299.483 141.835 297.648 141.579 295.344 141.152ZM334.384 95.968C334.384 90.7627 333.872 85.6853 332.848 80.736C331.824 75.7867 330.16 71.3067 327.856 67.296C325.637 63.2853 322.693 60.128 319.024 57.824C315.355 55.4347 310.875 54.24 305.584 54.24C300.208 54.24 295.643 55.4347 291.888 57.824C288.219 60.128 285.232 63.2853 282.928 67.296C280.709 71.2213 279.045 75.616 277.936 80.48C276.912 85.344 276.4 90.2507 276.4 95.2C276.4 100.149 276.912 105.099 277.936 110.048C279.045 114.997 280.752 119.477 283.056 123.488C285.36 127.499 288.389 130.741 292.144 133.216C295.984 135.605 300.592 136.8 305.968 136.8C311.259 136.8 315.696 135.648 319.28 133.344C322.949 131.04 325.893 127.968 328.112 124.128C330.331 120.203 331.909 115.808 332.848 110.944C333.872 106.08 334.384 101.088 334.384 95.968ZM385.553 141.536C380.006 141.536 375.697 139.915 372.625 136.672C369.638 133.344 368.145 128.565 368.145 122.336V96.48C368.145 93.152 367.974 90.6773 367.633 89.056C367.377 87.4347 366.566 86.2827 365.201 85.6C363.921 84.9173 361.702 84.3627 358.545 83.936C358.118 82.8267 358.118 81.76 358.545 80.736C362.214 80.224 365.713 79.6693 369.041 79.072C372.454 78.4747 375.868 77.7493 379.281 76.896L381.201 77.792C381.116 80.4373 381.03 82.9547 380.945 85.344C380.945 87.648 380.945 89.824 380.945 91.872V117.728C380.945 122.848 381.713 126.688 383.249 129.248C384.87 131.723 387.985 132.96 392.593 132.96C395.153 132.96 397.542 132.405 399.761 131.296C402.065 130.101 404.241 128.395 406.289 126.176V96.48C406.289 93.152 406.118 90.6773 405.777 89.056C405.521 87.4347 404.71 86.2827 403.345 85.6C402.065 84.9173 399.846 84.3627 396.689 83.936C396.433 82.8267 396.433 81.76 396.689 80.736C400.358 80.224 403.857 79.6693 407.185 79.072C410.598 78.4747 414.054 77.7493 417.553 76.896L419.473 77.792C419.388 80.4373 419.302 82.9547 419.217 85.344C419.217 87.648 419.217 89.824 419.217 91.872V125.024C419.217 127.584 419.345 129.504 419.601 130.784C419.942 132.064 420.796 133.003 422.161 133.6C423.612 134.112 425.958 134.539 429.201 134.88C429.286 135.904 429.286 136.971 429.201 138.08C425.532 138.421 422.033 138.848 418.705 139.36C415.377 139.872 412.134 140.512 408.977 141.28L406.929 140.384L406.673 131.424C399.59 138.165 392.55 141.536 385.553 141.536ZM466.706 140.128C464.317 140.128 461.842 140.085 459.282 140C456.722 139.915 453.949 139.872 450.962 139.872C448.231 139.872 445.458 139.915 442.642 140C439.911 140.085 437.266 140.128 434.706 140.128C434.45 138.763 434.45 137.44 434.706 136.16C437.607 135.989 439.741 135.733 441.106 135.392C442.471 134.965 443.367 134.112 443.794 132.832C444.221 131.552 444.434 129.504 444.434 126.688V98.016C444.434 94.688 444.306 92.2133 444.05 90.592C443.794 88.9707 442.983 87.8613 441.618 87.264C440.338 86.5813 438.077 86.0267 434.834 85.6C434.578 84.4053 434.578 83.296 434.834 82.272C438.589 81.5893 442.173 80.736 445.586 79.712C448.999 78.688 452.285 77.5787 455.442 76.384L457.618 77.152C457.533 79.7973 457.447 82.272 457.362 84.576C457.362 86.88 457.362 89.056 457.362 91.104V125.408C457.362 128.736 457.533 131.125 457.874 132.576C458.301 134.027 459.154 134.965 460.434 135.392C461.799 135.733 463.89 135.989 466.706 136.16C466.962 137.44 466.962 138.763 466.706 140.128ZM441.106 54.624C441.106 52.1493 441.959 50.0587 443.666 48.352C445.458 46.6453 447.591 45.792 450.066 45.792C452.455 45.792 454.503 46.6453 456.21 48.352C458.002 50.0587 458.898 52.1067 458.898 54.496C458.898 56.7147 458.045 58.7627 456.338 60.64C454.631 62.432 452.455 63.328 449.81 63.328C447.421 63.328 445.373 62.4747 443.666 60.768C441.959 59.0613 441.106 57.0133 441.106 54.624ZM471.935 140.128C471.85 139.787 471.807 139.445 471.807 139.104C471.807 138.763 471.807 138.421 471.807 138.08C471.807 137.739 471.807 137.44 471.807 137.184C471.807 136.843 471.85 136.501 471.935 136.16C474.836 135.989 476.97 135.733 478.335 135.392C479.7 134.965 480.596 134.112 481.023 132.832C481.45 131.552 481.663 129.504 481.663 126.688V62.56C481.663 59.9147 481.407 57.952 480.895 56.672C480.468 55.3067 479.487 54.368 477.951 53.856C476.5 53.2587 474.282 52.832 471.295 52.576C471.21 52.2347 471.167 51.936 471.167 51.68C471.167 51.424 471.167 51.168 471.167 50.912C471.167 50.5707 471.167 50.272 471.167 50.016C471.167 49.76 471.21 49.4613 471.295 49.12C474.708 48.6933 478.207 48.0533 481.791 47.2C485.375 46.2613 489.044 44.9813 492.799 43.36L494.975 44.128C494.89 46.0053 494.804 48.1387 494.719 50.528C494.719 52.9173 494.719 55.52 494.719 58.336V105.824C495.743 105.824 496.596 105.653 497.279 105.312C497.962 104.971 498.516 104.629 498.943 104.288C499.114 104.117 499.455 103.819 499.967 103.392C500.479 102.88 501.375 101.984 502.655 100.704C503.935 99.424 505.77 97.504 508.159 94.944C510.378 92.4693 512.127 90.5493 513.407 89.184C514.772 87.7333 515.455 86.5387 515.455 85.6C515.455 84.9173 514.858 84.3627 513.663 83.936C512.554 83.424 511.018 83.1253 509.055 83.04C508.97 82.6987 508.927 82.3573 508.927 82.016C508.927 81.6747 508.927 81.3333 508.927 80.992C508.927 80.6507 508.927 80.3093 508.927 79.968C508.927 79.6267 508.97 79.2853 509.055 78.944C510.762 78.944 512.895 78.9867 515.455 79.072C518.1 79.1573 520.447 79.2 522.495 79.2C523.519 79.2 524.97 79.2 526.847 79.2C528.81 79.1147 530.772 79.072 532.735 79.072C534.698 79.072 536.148 79.072 537.087 79.072C537.172 79.4133 537.215 79.7547 537.215 80.096C537.3 80.4373 537.343 80.7787 537.343 81.12C537.343 81.4613 537.3 81.8027 537.215 82.144C537.215 82.4 537.172 82.6987 537.087 83.04C532.65 83.1253 528.895 84.2347 525.823 86.368C522.751 88.416 519.807 90.848 516.991 93.664L507.775 102.88L525.439 126.176C527.316 128.651 528.852 130.613 530.047 132.064C531.327 133.429 532.692 134.411 534.143 135.008C535.594 135.605 537.599 135.989 540.159 136.16C540.33 137.355 540.33 138.677 540.159 140.128C539.05 140.128 537.386 140.085 535.167 140C533.034 139.915 529.663 139.872 525.055 139.872C524.372 139.872 523.348 139.872 521.983 139.872C520.618 139.872 519.338 139.957 518.143 140.128C518.143 139.189 517.631 137.909 516.607 136.288C515.583 134.581 514.772 133.344 514.175 132.576C513.919 132.149 513.279 131.253 512.255 129.888C511.231 128.437 509.994 126.773 508.543 124.896C507.178 122.933 505.77 120.971 504.319 119.008C502.868 116.96 501.546 115.168 500.351 113.632C499.412 112.352 498.516 111.371 497.663 110.688C496.895 109.92 495.914 109.536 494.719 109.536V125.408C494.719 128.736 494.847 131.125 495.103 132.576C495.444 134.027 496.17 134.965 497.279 135.392C498.474 135.733 500.266 135.989 502.655 136.16C502.826 137.44 502.826 138.763 502.655 140.128C500.436 140.128 498.09 140.085 495.615 140C493.226 139.915 490.623 139.872 487.807 139.872C485.076 139.872 482.388 139.915 479.743 140C477.098 140.085 474.495 140.128 471.935 140.128ZM601.446 120.544L628.838 50.4C630.63 50.4853 632.507 50.528 634.47 50.528C636.433 50.528 638.097 50.528 639.462 50.528C640.145 50.528 641.382 50.528 643.174 50.528C645.051 50.4427 647.057 50.4 649.19 50.4C651.409 50.4 653.414 50.4 655.206 50.4C657.083 50.3147 658.363 50.272 659.046 50.272C659.302 51.552 659.302 52.8747 659.046 54.24H658.79C654.865 54.6667 652.006 55.0933 650.214 55.52C648.422 55.8613 647.313 56.7147 646.886 58.08C646.545 59.36 646.374 61.4933 646.374 64.48L647.398 124.256C647.398 126.901 647.483 128.992 647.654 130.528C647.825 132.064 648.294 133.173 649.062 133.856C649.83 134.539 651.067 135.051 652.774 135.392C654.481 135.648 656.913 135.904 660.07 136.16C660.326 137.44 660.326 138.763 660.07 140.128C659.387 140.128 658.107 140.085 656.23 140C654.438 140 652.433 140 650.214 140C648.081 140 646.075 140 644.198 140C642.406 139.915 641.169 139.872 640.486 139.872C639.803 139.872 638.566 139.915 636.774 140C634.982 140 633.019 140 630.886 140C628.753 140 626.79 140 624.998 140C623.206 140.085 621.969 140.128 621.286 140.128C621.201 138.848 621.201 137.525 621.286 136.16H621.542C625.297 135.733 628.027 135.349 629.734 135.008C631.441 134.581 632.465 133.728 632.806 132.448C633.233 131.083 633.446 128.907 633.446 125.92L632.294 57.312L600.038 139.872C599.441 140.128 598.502 140.299 597.222 140.384C595.942 140.469 594.833 140.512 593.894 140.512L563.558 60L561.51 125.92C561.425 128.736 561.553 130.784 561.894 132.064C562.235 133.259 563.259 134.112 564.966 134.624C566.673 135.136 569.531 135.648 573.542 136.16C573.883 137.525 573.883 138.848 573.542 140.128C572.689 140.128 571.195 140.085 569.062 140C567.014 140 564.923 140 562.79 140C560.742 139.915 559.249 139.872 558.31 139.872C557.798 139.872 556.774 139.915 555.238 140C553.787 140 552.166 140 550.374 140C548.582 140 546.918 140 545.382 140C543.931 140.085 542.95 140.128 542.438 140.128C542.267 138.763 542.267 137.44 542.438 136.16C546.449 135.648 549.307 135.136 551.014 134.624C552.721 134.112 553.787 133.088 554.214 131.552C554.726 130.016 555.025 127.584 555.11 124.256L557.542 64.48C557.713 61.4933 557.585 59.36 557.158 58.08C556.731 56.8 555.579 55.9467 553.702 55.52C551.91 55.008 548.923 54.5813 544.742 54.24C544.657 52.8747 544.657 51.552 544.742 50.272C547.643 50.272 550.63 50.3147 553.702 50.4C556.774 50.4853 560.187 50.528 563.942 50.528C565.222 50.528 566.929 50.528 569.062 50.528C571.195 50.528 573.158 50.4853 574.95 50.4L601.446 120.544ZM696.902 141.536C690.843 141.536 685.723 140.128 681.542 137.312C677.361 134.496 674.161 130.741 671.942 126.048C669.809 121.269 668.742 116.021 668.742 110.304C668.742 104.416 669.851 98.9547 672.07 93.92C674.374 88.8853 677.702 84.832 682.054 81.76C686.406 78.6027 691.697 77.024 697.926 77.024C705.435 77.024 711.281 79.2853 715.462 83.808C719.729 88.2453 721.862 94.0053 721.862 101.088C721.862 101.941 721.819 102.709 721.734 103.392C721.734 103.989 721.691 104.501 721.606 104.928L681.286 104.544C681.286 104.885 681.286 105.184 681.286 105.44C681.286 113.803 683.206 120.373 687.046 125.152C690.886 129.931 696.262 132.32 703.174 132.32C708.977 132.32 714.694 130.443 720.326 126.688C721.179 127.712 721.819 128.693 722.246 129.632C714.993 137.568 706.545 141.536 696.902 141.536ZM681.67 99.808L708.166 99.296C708.251 99.1253 708.294 98.912 708.294 98.656C708.294 98.3147 708.294 98.1013 708.294 98.016C708.294 93.408 707.27 89.568 705.222 86.496C703.259 83.424 700.315 81.888 696.39 81.888C692.721 81.888 689.521 83.3813 686.79 86.368C684.059 89.3547 682.353 93.8347 681.67 99.808ZM808.527 140.128C808.271 138.763 808.271 137.44 808.527 136.16C811.087 135.989 813.007 135.733 814.287 135.392C815.567 134.965 816.42 134.112 816.847 132.832C817.359 131.552 817.615 129.504 817.615 126.688V100.832C817.615 95.7973 816.847 92 815.311 89.44C813.86 86.88 810.831 85.6 806.223 85.6C800.506 85.6 795.642 87.7333 791.631 92C791.802 93.3653 791.887 94.816 791.887 96.352V125.408C791.887 128.736 792.058 131.125 792.399 132.576C792.826 134.027 793.679 134.965 794.959 135.392C796.239 135.733 798.202 135.989 800.847 136.16C801.018 137.44 801.018 138.763 800.847 140.128C798.458 140.128 796.068 140.085 793.679 140C791.29 139.915 788.474 139.872 785.231 139.872C782.074 139.872 779.3 139.915 776.911 140C774.607 140.085 772.388 140.128 770.255 140.128C769.999 138.763 769.999 137.44 770.255 136.16C772.73 135.989 774.564 135.733 775.759 135.392C777.039 134.965 777.892 134.112 778.319 132.832C778.746 131.552 778.959 129.504 778.959 126.688V100.832C778.959 95.7973 778.234 92 776.783 89.44C775.332 86.88 772.26 85.6 767.567 85.6C762.191 85.6 757.498 87.776 753.487 92.128V125.408C753.487 128.736 753.658 131.125 753.999 132.576C754.426 134.027 755.279 134.965 756.559 135.392C757.924 135.733 759.972 135.989 762.703 136.16C762.874 137.44 762.874 138.763 762.703 140.128C760.314 140.128 757.839 140.085 755.279 140C752.804 139.915 749.946 139.872 746.703 139.872C743.631 139.872 740.858 139.915 738.383 140C735.908 140.085 733.391 140.128 730.831 140.128C730.575 138.763 730.575 137.44 730.831 136.16C733.732 135.989 735.866 135.733 737.231 135.392C738.596 134.965 739.492 134.112 739.919 132.832C740.346 131.552 740.559 129.504 740.559 126.688V98.016C740.559 94.688 740.388 92.2133 740.047 90.592C739.791 88.9707 738.98 87.8613 737.615 87.264C736.335 86.5813 734.116 86.0267 730.959 85.6C730.703 84.4053 730.703 83.296 730.959 82.272C734.543 81.5893 737.999 80.7787 741.327 79.84C744.655 78.9013 747.94 77.7493 751.183 76.384L753.359 77.152V86.624C760.271 80.224 767.482 77.024 774.991 77.024C779.684 77.024 783.226 78.0053 785.615 79.968C788.004 81.9307 789.668 84.3627 790.607 87.264C794.276 83.7653 798.031 81.2053 801.871 79.584C805.711 77.8773 809.594 77.024 813.519 77.024C819.151 77.024 823.375 78.688 826.191 82.016C829.092 85.344 830.543 90.1227 830.543 96.352V125.408C830.543 128.736 830.714 131.125 831.055 132.576C831.396 134.027 832.207 134.965 833.487 135.392C834.767 135.733 836.73 135.989 839.375 136.16C839.631 137.44 839.631 138.763 839.375 140.128C836.986 140.128 834.596 140.085 832.207 140C829.818 139.915 827.044 139.872 823.887 139.872C820.644 139.872 817.786 139.915 815.311 140C812.922 140.085 810.66 140.128 808.527 140.128ZM878.093 141.536C871.864 141.536 866.402 140.213 861.709 137.568C857.101 134.837 853.517 131.125 850.957 126.432C848.397 121.653 847.117 116.192 847.117 110.048C847.117 103.392 848.44 97.5893 851.085 92.64C853.816 87.6907 857.613 83.8507 862.477 81.12C867.341 78.3893 872.93 77.024 879.245 77.024C885.474 77.024 890.893 78.3893 895.501 81.12C900.109 83.8507 903.693 87.6053 906.253 92.384C908.813 97.1627 910.093 102.581 910.093 108.64C910.093 114.869 908.728 120.501 905.997 125.536C903.352 130.485 899.64 134.411 894.861 137.312C890.082 140.128 884.493 141.536 878.093 141.536ZM861.581 108.512C861.581 117.216 862.989 124.128 865.805 129.248C868.706 134.283 873.016 136.8 878.733 136.8C884.194 136.8 888.376 134.411 891.277 129.632C894.178 124.768 895.629 118.283 895.629 110.176C895.629 101.557 894.178 94.688 891.277 89.568C888.376 84.448 884.152 81.888 878.605 81.888C873.144 81.888 868.92 84.2347 865.933 88.928C863.032 93.6213 861.581 100.149 861.581 108.512Z" fill="white"/>
<g filter="url(#filter0_d_79_72)">
<rect x="3" y="1" width="219" height="212" rx="25" fill="url(#paint0_linear_79_72)"/>
</g>
<g filter="url(#filter1_d_79_72)">
<path d="M148.986 153.191C150.552 155.466 149.985 158.596 147.607 160C133.542 168.305 117.018 171.606 100.753 169.267C82.8321 166.69 66.54 157.457 55.1224 143.406C43.7047 129.355 37.9997 111.518 39.1439 93.4497C40.2881 75.381 48.1976 58.4065 61.2965 45.9082C74.3953 33.4099 91.722 26.3052 109.825 26.0096C127.927 25.714 145.476 32.2492 158.976 44.3133C172.476 56.3773 180.936 73.0844 182.669 91.1062C184.243 107.464 180.17 123.814 171.215 137.474C169.701 139.784 166.548 140.203 164.349 138.533L151.687 128.912C149.488 127.242 149.086 124.117 150.509 121.75C155.573 113.325 157.835 103.458 156.886 93.5863C155.776 82.0479 150.36 71.3512 141.717 63.6273C133.073 55.9033 121.837 51.7192 110.247 51.9084C98.6573 52.0977 87.564 56.6464 79.1775 64.6484C70.791 72.6504 65.727 83.5182 64.9944 95.0867C64.2619 106.655 67.9145 118.075 75.2246 127.071C82.5347 136.067 92.9656 141.979 104.439 143.628C114.255 145.04 124.218 143.243 132.871 138.579C135.302 137.269 138.405 137.817 139.97 140.092L148.986 153.191Z" fill="#2759CC"/>
<mask id="mask0_79_72" style="mask-type:alpha" maskUnits="userSpaceOnUse" x="39" y="26" width="145" height="145">
<path d="M148.986 153.191C150.552 155.466 149.985 158.596 147.607 160C133.542 168.305 117.018 171.606 100.753 169.267C82.8321 166.69 66.54 157.457 55.1224 143.406C43.7047 129.355 37.9997 111.518 39.1439 93.4497C40.2881 75.381 48.1976 58.4065 61.2965 45.9082C74.3953 33.4099 91.722 26.3052 109.825 26.0096C127.927 25.714 145.476 32.2492 158.976 44.3133C172.476 56.3773 180.936 73.0844 182.669 91.1062C184.243 107.464 180.17 123.814 171.215 137.474C169.701 139.784 166.548 140.203 164.349 138.533L151.687 128.912C149.488 127.242 149.086 124.117 150.509 121.75C155.573 113.325 157.835 103.458 156.886 93.5863C155.776 82.0479 150.36 71.3512 141.717 63.6273C133.073 55.9033 121.837 51.7192 110.247 51.9084C98.6573 52.0977 87.564 56.6464 79.1775 64.6484C70.791 72.6504 65.727 83.5182 64.9944 95.0867C64.2619 106.655 67.9145 118.075 75.2246 127.071C82.5347 136.067 92.9656 141.979 104.439 143.628C114.255 145.04 124.218 143.243 132.871 138.579C135.302 137.269 138.405 137.817 139.97 140.092L148.986 153.191Z" fill="#2759CC"/>
</mask>
<g mask="url(#mask0_79_72)">
<path d="M123.018 71.2444C113.092 69.1633 102.744 69.7004 93.1239 72.7961C83.5043 75.8918 74.9899 81.4247 68.5273 88.7799C62.0647 96.1351 57.907 105.024 56.5164 114.46C55.1258 123.895 56.5568 133.506 60.6503 142.225C64.7438 150.945 71.3395 158.43 79.7041 163.85C88.0687 169.269 97.8746 172.411 108.032 172.925C118.189 173.439 128.299 171.305 137.239 166.762C146.179 162.218 153.597 155.441 158.671 147.186L111 121.5L123.018 71.2444Z" fill="#3F70E2"/>
</g>
<path d="M179.218 175.308L127.267 160.363L139.027 139.157L179.218 175.308Z" fill="#4875DD"/>
</g>
<circle cx="112" cy="98" r="28" fill="#3F70E2"/>
<defs>
<filter id="filter0_d_79_72" x="0" y="0" width="229" height="222" filterUnits="userSpaceOnUse" color-interpolation-filters="sRGB">
<feFlood flood-opacity="0" result="BackgroundImageFix"/>
<feColorMatrix in="SourceAlpha" type="matrix" values="0 0 0 0 0 0 0 0 0 0 0 0 0 0 0 0 0 0 127 0" result="hardAlpha"/>
<feOffset dx="2" dy="4"/>
<feGaussianBlur stdDeviation="2.5"/>
<feComposite in2="hardAlpha" operator="out"/>
<feColorMatrix type="matrix" values="0 0 0 0 0 0 0 0 0 0 0 0 0 0 0 0 0 0 0.25 0"/>
<feBlend mode="normal" in2="BackgroundImageFix" result="effect1_dropShadow_79_72"/>
<feBlend mode="normal" in="SourceGraphic" in2="effect1_dropShadow_79_72" result="shape"/>
</filter>
<filter id="filter1_d_79_72" x="37" y="26" width="152" height="157.308" filterUnits="userSpaceOnUse" color-interpolation-filters="sRGB">
<feFlood flood-opacity="0" result="BackgroundImageFix"/>
<feColorMatrix in="SourceAlpha" type="matrix" values="0 0 0 0 0 0 0 0 0 0 0 0 0 0 0 0 0 0 127 0" result="hardAlpha"/>
<feOffset dx="2" dy="4"/>
<feGaussianBlur stdDeviation="2"/>
<feComposite in2="hardAlpha" operator="out"/>
<feColorMatrix type="matrix" values="0 0 0 0 0 0 0 0 0 0 0 0 0 0 0 0 0 0 0.25 0"/>
<feBlend mode="normal" in2="BackgroundImageFix" result="effect1_dropShadow_79_72"/>
<feBlend mode="normal" in="SourceGraphic" in2="effect1_dropShadow_79_72" result="shape"/>
</filter>
<linearGradient id="paint0_linear_79_72" x1="50" y1="42" x2="253.126" y2="264.796" gradientUnits="userSpaceOnUse">
<stop stop-color="#F7F7F7"/>
<stop offset="1" stop-color="#DCDCDC"/>
</linearGradient>
</defs>
</svg>
