<svg width="229" height="222" viewBox="0 0 229 222" fill="none" xmlns="http://www.w3.org/2000/svg">
    <g filter="url(#filter0_d_79_64)">
        <rect x="3" y="1" width="219" height="212" rx="25" fill="url(#paint0_linear_79_64)" />
    </g>
    <g filter="url(#filter1_d_79_64)">
        <path
            d="M148.986 153.191C150.552 155.466 149.985 158.596 147.607 160C133.542 168.305 117.018 171.606 100.753 169.267C82.8321 166.69 66.54 157.457 55.1224 143.406C43.7047 129.355 37.9997 111.518 39.1439 93.4497C40.2881 75.381 48.1976 58.4065 61.2965 45.9082C74.3953 33.4099 91.722 26.3052 109.825 26.0096C127.927 25.714 145.476 32.2492 158.976 44.3133C172.476 56.3773 180.936 73.0844 182.669 91.1062C184.243 107.464 180.17 123.814 171.215 137.474C169.701 139.784 166.548 140.203 164.349 138.533L151.687 128.912C149.488 127.242 149.086 124.117 150.509 121.75C155.573 113.325 157.835 103.458 156.886 93.5863C155.776 82.0479 150.36 71.3512 141.717 63.6273C133.073 55.9033 121.837 51.7192 110.247 51.9084C98.6573 52.0977 87.564 56.6464 79.1775 64.6484C70.791 72.6504 65.727 83.5182 64.9944 95.0867C64.2619 106.655 67.9145 118.075 75.2246 127.071C82.5347 136.067 92.9656 141.979 104.439 143.628C114.255 145.04 124.218 143.243 132.871 138.579C135.302 137.269 138.405 137.817 139.97 140.092L148.986 153.191Z"
            fill="#2759CC" />
        <mask id="mask0_79_64" style="mask-type:alpha" maskUnits="userSpaceOnUse" x="39" y="26" width="145"
            height="145">
            <path
                d="M148.986 153.191C150.552 155.466 149.985 158.596 147.607 160C133.542 168.305 117.018 171.606 100.753 169.267C82.8321 166.69 66.54 157.457 55.1224 143.406C43.7047 129.355 37.9997 111.518 39.1439 93.4497C40.2881 75.381 48.1976 58.4065 61.2965 45.9082C74.3953 33.4099 91.722 26.3052 109.825 26.0096C127.927 25.714 145.476 32.2492 158.976 44.3133C172.476 56.3773 180.936 73.0844 182.669 91.1062C184.243 107.464 180.17 123.814 171.215 137.474C169.701 139.784 166.548 140.203 164.349 138.533L151.687 128.912C149.488 127.242 149.086 124.117 150.509 121.75C155.573 113.325 157.835 103.458 156.886 93.5863C155.776 82.0479 150.36 71.3512 141.717 63.6273C133.073 55.9033 121.837 51.7192 110.247 51.9084C98.6573 52.0977 87.564 56.6464 79.1775 64.6484C70.791 72.6504 65.727 83.5182 64.9944 95.0867C64.2619 106.655 67.9145 118.075 75.2246 127.071C82.5347 136.067 92.9656 141.979 104.439 143.628C114.255 145.04 124.218 143.243 132.871 138.579C135.302 137.269 138.405 137.817 139.97 140.092L148.986 153.191Z"
                fill="#2759CC" />
        </mask>
        <g mask="url(#mask0_79_64)">
            <path
                d="M123.018 71.2444C113.092 69.1633 102.744 69.7004 93.1239 72.7961C83.5043 75.8918 74.9899 81.4247 68.5273 88.7799C62.0647 96.1351 57.907 105.024 56.5164 114.46C55.1258 123.895 56.5568 133.506 60.6503 142.225C64.7438 150.945 71.3395 158.43 79.7041 163.85C88.0687 169.269 97.8746 172.411 108.032 172.925C118.189 173.439 128.299 171.305 137.239 166.762C146.179 162.218 153.597 155.441 158.671 147.186L111 121.5L123.018 71.2444Z"
                fill="#3F70E2" />
        </g>
        <path d="M179.218 175.308L127.267 160.363L139.027 139.157L179.218 175.308Z" fill="#4875DD" />
    </g>
    <circle cx="112" cy="98" r="28" fill="#3F70E2" />
    <defs>
        <filter id="filter0_d_79_64" x="0" y="0" width="229" height="222" filterUnits="userSpaceOnUse"
            color-interpolation-filters="sRGB">
            <feFlood flood-opacity="0" result="BackgroundImageFix" />
            <feColorMatrix in="SourceAlpha" type="matrix" values="0 0 0 0 0 0 0 0 0 0 0 0 0 0 0 0 0 0 127 0"
                result="hardAlpha" />
            <feOffset dx="2" dy="4" />
            <feGaussianBlur stdDeviation="2.5" />
            <feComposite in2="hardAlpha" operator="out" />
            <feColorMatrix type="matrix" values="0 0 0 0 0 0 0 0 0 0 0 0 0 0 0 0 0 0 0.25 0" />
            <feBlend mode="normal" in2="BackgroundImageFix" result="effect1_dropShadow_79_64" />
            <feBlend mode="normal" in="SourceGraphic" in2="effect1_dropShadow_79_64" result="shape" />
        </filter>
        <filter id="filter1_d_79_64" x="37" y="26" width="152" height="157.308" filterUnits="userSpaceOnUse"
            color-interpolation-filters="sRGB">
            <feFlood flood-opacity="0" result="BackgroundImageFix" />
            <feColorMatrix in="SourceAlpha" type="matrix" values="0 0 0 0 0 0 0 0 0 0 0 0 0 0 0 0 0 0 127 0"
                result="hardAlpha" />
            <feOffset dx="2" dy="4" />
            <feGaussianBlur stdDeviation="2" />
            <feComposite in2="hardAlpha" operator="out" />
            <feColorMatrix type="matrix" values="0 0 0 0 0 0 0 0 0 0 0 0 0 0 0 0 0 0 0.25 0" />
            <feBlend mode="normal" in2="BackgroundImageFix" result="effect1_dropShadow_79_64" />
            <feBlend mode="normal" in="SourceGraphic" in2="effect1_dropShadow_79_64" result="shape" />
        </filter>
        <linearGradient id="paint0_linear_79_64" x1="50" y1="42" x2="253.126" y2="264.796"
            gradientUnits="userSpaceOnUse">
            <stop stop-color="#F7F7F7" />
            <stop offset="1" stop-color="#DCDCDC" />
        </linearGradient>
    </defs>
</svg>